<svg width="24" height="20px" viewBox="0 0 24 24" fill="none" xmlns="https://www.w3.org/2000/svg" class="IconAdresses">
    <path fill-rule="evenodd" clip-rule="evenodd"
        d="M11.4243 23.3261L11.986 24L12.585 23.2886C12.6606 23.198 12.7544 23.0951 12.8616 22.9776L12.8617 22.9775C13.0201 22.8039 13.2078 22.5982 13.4087 22.3526L13.5684 22.1709C16.0593 19.3375 20.9719 13.7493 20.9719 8.98596C20.9719 4.04368 16.9282 0 11.986 0C7.04368 0 3 4.04368 3 8.98596C3 13.8908 8.16693 19.6942 10.6755 22.4649C10.8582 22.6933 11.027 22.8799 11.1734 23.0417L11.1734 23.0417L11.1734 23.0418C11.267 23.1452 11.3513 23.2385 11.4243 23.3261ZM7.86719 8.42435C7.86719 10.7083 9.70182 12.5429 11.9858 12.5429C14.2697 12.5429 16.1043 10.7083 16.1043 8.42435C16.1043 6.14042 14.2697 4.30579 11.9858 4.30579C9.70182 4.30579 7.86719 6.14042 7.86719 8.42435Z"
        fill="#ff6500"></path>
</svg>