<svg width="24" height="24" viewBox="0 0 24 24" fill="none" xmlns="http://www.w3.org/2000/svg"
    class="IconCustomerService">
    <g clip-path="url(#clip0_13082_470227)">
        <path
            d="M23.2969 0.398438H9.1875C8.79886 0.398438 8.48438 0.712922 8.48438 1.10156V13.0547C8.48438 13.4433 8.79886 13.7578 9.1875 13.7578H21.8906C22.2786 13.7578 22.5938 14.073 22.5938 14.4609C22.5938 14.8496 22.9082 15.1641 23.2969 15.1641C23.6855 15.1641 24 14.8496 24 14.4609V1.10156C24 0.712922 23.6855 0.398438 23.2969 0.398438ZM16.2188 10.9453C15.8304 10.9453 15.5156 10.6305 15.5156 10.2422C15.5156 9.85378 15.8304 9.53906 16.2188 9.53906C16.6071 9.53906 16.9219 9.85378 16.9219 10.2422C16.9219 10.6305 16.6071 10.9453 16.2188 10.9453ZM17.2741 7.1468C17.0572 7.27247 16.9219 7.50661 16.9219 7.75655C16.9219 8.14519 16.6074 8.45967 16.2188 8.45967C15.8301 8.45967 15.5156 8.14519 15.5156 7.75655C15.5156 7.00603 15.9194 6.30633 16.5696 5.93006C16.7873 5.80439 16.9219 5.57095 16.9219 5.32031C16.9219 4.93237 16.6067 4.61719 16.2188 4.61719C15.8308 4.61719 15.5156 4.93237 15.5156 5.32031C15.5156 5.70895 15.2011 6.02344 14.8125 6.02344C14.4239 6.02344 14.1094 5.70895 14.1094 5.32031C14.1094 4.15716 15.0556 3.21094 16.2188 3.21094C17.3819 3.21094 18.3281 4.15716 18.3281 5.32031C18.3281 6.07083 17.9244 6.77119 17.2741 7.1468Z"
            fill="#ff6500"></path>
        <path
            d="M0.703125 23.6016C1.09177 23.6016 1.40625 23.2871 1.40625 22.8984C1.40625 22.5105 1.72144 22.1953 2.10938 22.1953H14.8125C15.2011 22.1953 15.5156 21.8808 15.5156 21.4922V15.1641H9.1875C8.02434 15.1641 7.07812 14.2178 7.07812 13.0547V9.53906H0.703125C0.314484 9.53906 0 9.85355 0 10.2422V22.8984C0 23.2871 0.314484 23.6016 0.703125 23.6016ZM3.51562 13.7578H4.96875C5.35739 13.7578 5.67188 14.0723 5.67188 14.4609C5.67188 14.8496 5.35739 15.1641 4.96875 15.1641H3.51562C3.12698 15.1641 2.8125 14.8496 2.8125 14.4609C2.8125 14.0723 3.12698 13.7578 3.51562 13.7578ZM3.51562 16.5703H12C12.3886 16.5703 12.7031 16.8848 12.7031 17.2734C12.7031 17.6621 12.3886 17.9766 12 17.9766H3.51562C3.12698 17.9766 2.8125 17.6621 2.8125 17.2734C2.8125 16.8848 3.12698 16.5703 3.51562 16.5703Z"
            fill="#ff6500"></path>
    </g>
    <defs>
        <clipPath id="clip0_13082_470227">
            <rect width="24" height="24" fill="white"></rect>
        </clipPath>
    </defs>
</svg>