<svg width="24" height="24" viewBox="0 0 24 24" fill="none" xmlns="https://www.w3.org/2000/svg" class="IconShortcut">
    <path fill-rule="evenodd" clip-rule="evenodd"
        d="M9 4.5C9 6.98528 6.98528 9 4.5 9C2.01472 9 0 6.98528 0 4.5C0 2.01472 2.01472 0 4.5 0C6.98528 0 9 2.01472 9 4.5ZM9 19.5C9 21.9853 6.98528 24 4.5 24C2.01472 24 0 21.9853 0 19.5C0 17.0147 2.01472 15 4.5 15C6.98528 15 9 17.0147 9 19.5ZM19.5 9C21.9853 9 24 6.98528 24 4.5C24 2.01472 21.9853 0 19.5 0C17.0147 0 15 2.01472 15 4.5C15 6.98528 17.0147 9 19.5 9ZM24 19.5C24 21.9853 21.9853 24 19.5 24C17.0147 24 15 21.9853 15 19.5C15 17.0147 17.0147 15 19.5 15C21.9853 15 24 17.0147 24 19.5Z"
        fill="#FF6500"></path>
</svg>