<svg width="24" height="24" viewBox="0 0 24 24" fill="none" xmlns="https://www.w3.org/2000/svg" class="IconTruck">
    <path
        d="M20.1818 7.5H17.4545V5.25C17.4545 4.0125 16.4727 3 15.2727 3H2.18182C0.981818 3 0 4.0125 0 5.25V15.375C0 16.6125 0.981818 17.625 2.18182 17.625C2.18182 19.4925 3.64364 21 5.45455 21C7.26545 21 8.72727 19.4925 8.72727 17.625H15.2727C15.2727 19.4925 16.7345 21 18.5455 21C20.3564 21 21.8182 19.4925 21.8182 17.625H22.9091C23.5091 17.625 24 17.1187 24 16.5V12.7537C24 12.27 23.8473 11.7975 23.5636 11.4038L21.0545 7.95C20.8473 7.66875 20.52 7.5 20.1818 7.5ZM5.45455 18.75C4.85455 18.75 4.36364 18.2437 4.36364 17.625C4.36364 17.0063 4.85455 16.5 5.45455 16.5C6.05455 16.5 6.54545 17.0063 6.54545 17.625C6.54545 18.2437 6.05455 18.75 5.45455 18.75ZM20.1818 9.1875L22.32 12H17.4545V9.1875H20.1818ZM18.5455 18.75C17.9455 18.75 17.4545 18.2437 17.4545 17.625C17.4545 17.0063 17.9455 16.5 18.5455 16.5C19.1455 16.5 19.6364 17.0063 19.6364 17.625C19.6364 18.2437 19.1455 18.75 18.5455 18.75Z"
        fill="#ff6500"></path>
</svg>