<!DOCTYPE svg PUBLIC "-//W3C//DTD SVG 1.1//EN" "http://www.w3.org/Graphics/SVG/1.1/DTD/svg11.dtd">

<!-- Uploaded to: SVG Repo, www.svgrepo.com, Transformed by: SVG Repo Mixer Tools -->
<svg width="12rem" height="12rem" viewBox="-4 -6 35.52 35.52" id="cart-close" xmlns="http://www.w3.org/2000/svg"
    class="icon multi-color" fill="#000000" transform="rotate(0)">


    <g id="SVGRepo_tracerCarrier" stroke-linecap="round" stroke-linejoin="round" stroke="#CCCCCC"
        stroke-width="0.24000000000000005" />

    <g id="SVGRepo_iconCarrier">

        <title style="stroke-width: 2;">cart close</title>

        <path id="tertiary-fill" d="M20,13H8l.77,2.32a1,1,0,0,0,1,.68h8.56a1,1,0,0,0,.95-.68Z"
            style="fill: transparent; stroke-width: 2;" />

        <path id="primary-stroke"
            d="M21,8l-1.81,7.24a1,1,0,0,1-1,.76H9.8a1,1,0,0,1-1-.78L6.18,3.78A1,1,0,0,0,5.2,3H3m9,6,4-4m0,4L12,5"
            style="fill: none; stroke: white; stroke-linecap: round; stroke-linejoin: round; stroke-width: 2;" />

        <path id="secondary-stroke"
            d="M12,20.5a.5.5,0,1,1-.5-.5A.5.5,0,0,1,12,20.5Zm4.5-.5a.5.5,0,1,0,.5.5A.5.5,0,0,0,16.5,20Z"
            style="fill: none; stroke: white; stroke-linecap: round; stroke-linejoin: round; stroke-width: 2;" />

    </g>

</svg>