<svg width="24" height="24" viewBox="0 0 24 24" fill="none" xmlns="https://www.w3.org/2000/svg" class="IconSettings">
    <path
        d="M23.2813 14.63L21.0753 12.905C21.1033 12.639 21.1273 12.328 21.1273 11.999C21.1273 11.67 21.1043 11.359 21.0753 11.093L23.2833 9.36703C23.6933 9.04303 23.8053 8.46802 23.5443 7.98905L21.2503 4.02C21.0053 3.57202 20.4683 3.342 19.9233 3.543L17.3203 4.58798C16.8213 4.22798 16.2983 3.924 15.7573 3.681L15.3613 0.920016C15.2963 0.396 14.8403 0 14.3013 0H9.70132C9.1623 0 8.70734 0.396 8.6433 0.912L8.24632 3.68302C7.7223 3.91903 7.20733 4.21903 6.68632 4.59L4.07632 3.54202C3.58727 3.35302 3.00227 3.56498 2.75927 4.011L0.462304 7.98502C0.191319 8.44303 0.303304 9.03802 0.722319 9.37003L2.9283 11.095C2.89329 11.432 2.87632 11.725 2.87632 12C2.87632 12.2751 2.89334 12.568 2.9283 12.906L0.720304 14.632C0.310288 14.957 0.199288 15.532 0.460288 16.01L2.7543 19.979C2.99932 20.426 3.5313 20.658 4.08129 20.456L6.6843 19.411C7.1823 19.77 7.70529 20.074 8.24632 20.318L8.64232 23.078C8.70729 23.604 9.1623 24 9.7023 24H14.3023C14.8413 24 15.2973 23.604 15.3613 23.088L15.7583 20.318C16.2823 20.081 16.7963 19.782 17.3183 19.41L19.9283 20.458C20.0543 20.507 20.1853 20.532 20.3203 20.532C20.7083 20.532 21.0653 20.32 21.2453 19.99L23.5493 16C23.8053 15.532 23.6933 14.957 23.2813 14.63ZM12.0013 16C9.7953 16 8.0013 14.206 8.0013 12C8.0013 9.79402 9.7953 8.00002 12.0013 8.00002C14.2073 8.00002 16.0013 9.79402 16.0013 12C16.0013 14.206 14.2073 16 12.0013 16Z"
        fill="#FF6500"></path>
</svg>