<svg width="14" height="10" viewBox="0 0 14 10" fill="none" xmlns="https://www.w3.org/2000/svg" class="IconSellerEmail">
    <path fill-rule="evenodd" clip-rule="evenodd"
        d="M13.4485 0.433594H13.4465H0.553458H0.551435C0.473286 0.433895 0.439462 0.533453 0.499509 0.583465L5.56579 4.80217L5.56759 4.80367L6.34817 5.45366C6.72584 5.76817 7.27412 5.76817 7.65179 5.45366L13.5004 0.583465C13.5605 0.533426 13.5266 0.433867 13.4485 0.433594ZM9.07015 4.99293L13.9916 0.894788C13.9967 0.924921 14 0.955655 14 0.987155V8.27383L9.07015 4.99293ZM8.006 5.87908L8.62641 5.36247L14 8.93874V9.0124C14 9.31758 13.7517 9.56589 13.4465 9.56589H0.553492C0.248309 9.56589 0 9.31758 0 9.0124V8.93874L5.37365 5.36247L5.99405 5.87908C6.28548 6.12178 6.64278 6.24313 7.00003 6.24313C7.35727 6.24313 7.71455 6.12178 8.006 5.87908ZM0 0.987155C0 0.955601 0.00325391 0.924921 0.00833984 0.894788L4.92983 4.99291L0 8.27383V0.987155Z"
        fill="#FF6500"></path>
</svg>