<svg width="24" height="24" viewBox="0 0 24 24" fill="none" xmlns="https://www.w3.org/2000/svg"
    class="IconRatingStarFull">
    <path fill-rule="black" clip-rule="black"
        d="M17.434 23.7375C17.6965 23.8875 17.9965 24 18.334 24C18.8215 24 19.3465 23.775 19.6465 23.3625C19.9465 22.95 20.059 22.425 19.9465 21.9375L18.409 15.375C18.409 15.3 18.4465 15.225 18.484 15.1875L23.3965 10.7625C23.9215 10.3125 24.109 9.6 23.884 8.9625C23.659 8.325 23.0965 7.875 22.4215 7.8375L16.084 7.35C16.009 7.35 15.9715 7.3125 15.934 7.2375L13.5715 1.0875C13.309 0.4125 12.709 0 11.9965 0C11.284 0 10.684 0.4125 10.384 1.0875L8.02153 7.2375C7.98403 7.3125 7.94653 7.35 7.87153 7.35L1.53403 7.8375C0.859031 7.875 0.296531 8.325 0.0715307 8.9625C-0.115969 9.6 0.0715306 10.3125 0.559031 10.7625L5.47153 15.1875C5.54653 15.225 5.54653 15.3 5.54653 15.375L4.04653 21.9375C3.89653 22.425 4.00903 22.95 4.34653 23.3625C4.64653 23.775 5.13403 24 5.65903 24C5.99653 24 6.29653 23.8875 6.59653 23.7375L11.9215 20.25C11.9965 20.2125 12.034 20.2125 12.109 20.25L17.434 23.7375Z"
        fill="#b2b2b2"></path>
</svg>