<svg width="16" height="13" viewBox="0 0 16 14" fill="none" xmlns="http://www.w3.org/2000/svg" class="IconFilter">
    <path fill-rule="evenodd" clip-rule="evenodd"
        d="M8.55286 1.66634C8.27831 0.889546 7.53748 0.333008 6.66667 0.333008C5.79585 0.333008 5.05503 0.889546 4.78047 1.66634H0.688689C0.592592 1.66634 0.501836 1.68167 0.416416 1.71232C0.330997 1.74297 0.256257 1.78895 0.192192 1.85025C0.128128 1.91155 0.0800802 1.98307 0.048048 2.06481C0.0160159 2.14655 0 2.23339 0 2.32535C0 2.42752 0.0160159 2.51692 0.048048 2.59354C0.0800802 2.67017 0.128128 2.74425 0.192192 2.81577C0.256257 2.87707 0.330997 2.92305 0.416416 2.9537C0.501836 2.98435 0.592592 2.99967 0.688689 2.99967H4.78047C5.05503 3.77647 5.79585 4.33301 6.66667 4.33301C7.53748 4.33301 8.27831 3.77647 8.55286 2.99967H15.3113C15.4074 2.99967 15.4982 2.98435 15.5836 2.9537C15.669 2.92305 15.7437 2.87707 15.8078 2.81577C15.8719 2.74425 15.9199 2.67017 15.952 2.59354C15.984 2.51692 16 2.42752 16 2.32535C16 2.23339 15.984 2.14655 15.952 2.06481C15.9199 1.98307 15.8719 1.91155 15.8078 1.85025C15.7437 1.78895 15.669 1.74297 15.5836 1.71232C15.4982 1.68167 15.4074 1.66634 15.3113 1.66634H8.55286ZM5.33333 2.33301C5.33333 1.59663 5.93029 0.999674 6.66667 0.999674C7.40305 0.999674 8 1.59663 8 2.33301C8 3.06939 7.40305 3.66634 6.66667 3.66634C5.93029 3.66634 5.33333 3.06939 5.33333 2.33301ZM7.66667 2.33301C7.66667 2.58913 7.57038 2.82276 7.41204 2.99967H5.9213C5.76295 2.82276 5.66667 2.58913 5.66667 2.33301C5.66667 2.07689 5.76295 1.84326 5.9213 1.66634H7.41204C7.57038 1.84326 7.66667 2.07689 7.66667 2.33301ZM0.192192 7.48243C0.128128 7.41091 0.0800802 7.33684 0.048048 7.26021C0.0160159 7.18358 0 7.09418 0 6.99201C0 6.90006 0.0160159 6.81321 0.048048 6.73148C0.0800802 6.64974 0.128128 6.57822 0.192192 6.51692C0.256257 6.45561 0.330997 6.40964 0.416416 6.37898C0.501836 6.34833 0.592592 6.33301 0.688689 6.33301H10.1138C10.3884 5.55621 11.1292 4.99967 12 4.99967C12.8708 4.99967 13.6116 5.55621 13.8862 6.33301H15.3113C15.4074 6.33301 15.4982 6.34833 15.5836 6.37898C15.669 6.40964 15.7437 6.45561 15.8078 6.51692C15.8719 6.57822 15.9199 6.64974 15.952 6.73148C15.984 6.81321 16 6.90006 16 6.99201C16 7.09418 15.984 7.18358 15.952 7.26021C15.9199 7.33684 15.8719 7.41091 15.8078 7.48243C15.7437 7.54374 15.669 7.58971 15.5836 7.62036C15.4982 7.65102 15.4074 7.66634 15.3113 7.66634H13.8862C13.6116 8.44314 12.8708 8.99967 12 8.99967C11.1292 8.99967 10.3884 8.44314 10.1138 7.66634H0.688689C0.592592 7.66634 0.501836 7.65102 0.416416 7.62036C0.330997 7.58971 0.256257 7.54374 0.192192 7.48243ZM11.2546 7.66634C11.0963 7.48942 11 7.25579 11 6.99967C11 6.74356 11.0963 6.50993 11.2546 6.33301H12.7454C12.9037 6.50993 13 6.74356 13 6.99967C13 7.25579 12.9037 7.48942 12.7454 7.66634H11.2546ZM0.048048 11.9269C0.0800802 12.0035 0.128128 12.0776 0.192192 12.1491C0.256257 12.2104 0.330997 12.2564 0.416416 12.287C0.501836 12.3177 0.592592 12.333 0.688689 12.333H2.1138C2.38836 13.1098 3.12919 13.6663 4 13.6663C4.87081 13.6663 5.61164 13.1098 5.8862 12.333H15.3113C15.4074 12.333 15.4982 12.3177 15.5836 12.287C15.669 12.2564 15.7437 12.2104 15.8078 12.1491C15.8719 12.0776 15.9199 12.0035 15.952 11.9269C15.984 11.8502 16 11.7608 16 11.6587C16 11.5667 15.984 11.4799 15.952 11.3981C15.9199 11.3164 15.8719 11.2449 15.8078 11.1836C15.7437 11.1223 15.669 11.0763 15.5836 11.0457C15.4982 11.015 15.4074 10.9997 15.3113 10.9997H5.8862C5.61164 10.2229 4.87081 9.66634 4 9.66634C3.12919 9.66634 2.38836 10.2229 2.1138 10.9997H0.688689C0.592592 10.9997 0.501836 11.015 0.416416 11.0457C0.330997 11.0763 0.256257 11.1223 0.192192 11.1836C0.128128 11.2449 0.0800802 11.3164 0.048048 11.3981C0.0160159 11.4799 0 11.5667 0 11.6587C0 11.7608 0.0160159 11.8502 0.048048 11.9269ZM3 11.6663C3 11.9225 3.09628 12.1561 3.25463 12.333H4.74537C4.90372 12.1561 5 11.9225 5 11.6663C5 11.4102 4.90372 11.1766 4.74537 10.9997H3.25463C3.09628 11.1766 3 11.4102 3 11.6663ZM12 5.66634C11.2636 5.66634 10.6667 6.26329 10.6667 6.99967C10.6667 7.73605 11.2636 8.33301 12 8.33301C12.7364 8.33301 13.3333 7.73605 13.3333 6.99967C13.3333 6.26329 12.7364 5.66634 12 5.66634ZM2.66667 11.6663C2.66667 10.93 3.26362 10.333 4 10.333C4.73638 10.333 5.33333 10.93 5.33333 11.6663C5.33333 12.4027 4.73638 12.9997 4 12.9997C3.26362 12.9997 2.66667 12.4027 2.66667 11.6663Z"
        fill="#FF6500"></path>
</svg>