<svg width="24px" height="20" viewBox="0 0 20 20" fill="none" xmlns="https://www.w3.org/2000/svg" class="IconLocked">
    <path
        d="M18.333 8.8H16.5622V3.2C16.5622 1.4325 15.07 0 13.2288 0H6.77051C4.92936 0 3.43717 1.4325 3.43717 3.2V8.8H1.66634C1.2054 8.8 0.833008 9.1575 0.833008 9.6V19.2C0.833008 19.6425 1.2054 20 1.66634 20H18.333C18.7939 20 19.1663 19.6425 19.1663 19.2V9.6C19.1663 9.1575 18.7939 8.8 18.333 8.8ZM10.7288 14.725V16.05C10.7288 16.16 10.6351 16.25 10.5205 16.25H9.47884C9.36426 16.25 9.27051 16.16 9.27051 16.05V14.725C9.05554 14.5768 8.89509 14.367 8.81225 14.1257C8.72941 13.8845 8.72845 13.6242 8.80952 13.3823C8.89058 13.1405 9.04949 12.9296 9.26336 12.78C9.47723 12.6304 9.73504 12.5498 9.99967 12.5498C10.2643 12.5498 10.5221 12.6304 10.736 12.78C10.9499 12.9296 11.1088 13.1405 11.1898 13.3823C11.2709 13.6242 11.2699 13.8845 11.1871 14.1257C11.1043 14.367 10.9438 14.5768 10.7288 14.725ZM14.6872 8.8H5.31217V3.2C5.31217 2.4275 5.96582 1.8 6.77051 1.8H13.2288C14.0335 1.8 14.6872 2.4275 14.6872 3.2V8.8Z"
        fill="#ff6500"></path>
</svg>